<svg xmlns="http://www.w3.org/2000/svg" width="165.811" height="200" viewBox="0 0 165.811 200">
  <g id="ic_app_logo_white" transform="translate(-43.762)">
    <path id="Path_1" data-name="Path 1" d="M124.654,0,112.81,10.5,132.55,32.886H91.137A47.377,47.377,0,0,0,43.762,80.261v43.427H59.553V80.261A31.585,31.585,0,0,1,91.137,48.677h41.65L113.048,71.062l11.844,10.5,36.044-40.782Z" fill="#fff"/>
    <path id="Path_2" data-name="Path 2" d="M269.657,195.36v43.427a31.585,31.585,0,0,1-31.583,31.583h-41.65l19.739-22.384-11.844-10.5-36.044,40.782,36.241,40.782,11.844-10.5-19.739-22.384h41.453a47.377,47.377,0,0,0,47.375-47.375V195.36Z" transform="translate(-75.875 -119.048)" fill="#fff"/>
  </g>
</svg>
