<svg height="55.775" viewBox="0 0 91.748 55.775" width="91.748" xmlns="http://www.w3.org/2000/svg">
    <path
        d="M66.008.185H5.1a5,5,0,0,0-5,5V50.96a5,5,0,0,0,5,5H86.846a5,5,0,0,0,5-5V5.185a5,5,0,0,0-5-5H66.008Zm4.717,5h7.062c.055.727.086,1.507.086,2.356,0,5.788-1.251,8.683-3.559,8.683s-3.714-2.779-3.675-8.6C70.633,6.736,70.666,5.931,70.725,5.186ZM29.983,50.96H5.1V5.186H29.983Zm27.923,0H34V5.186h23.91Zm28.94,0h-12.4l9.389-19.407V27.8H65.883v4.889H77.537v.078L68.214,50.96H61.919V5.186h2.864a23.806,23.806,0,0,0-.127,2.435c.039,7.2,2.933,13.1,9.5,13.1,6.492,0,9.659-5.4,9.659-13.258,0-.774-.039-1.533-.106-2.278h3.134V50.96ZM17.6,41.541c6.492,0,9.659-5.4,9.659-13.258,0-6.961-2.659-13.023-9.464-13.023-6.57,0-9.7,5.827-9.7,13.18C8.142,35.636,11.035,41.541,17.6,41.541Zm.118-21.783c2.386,0,3.6,2.972,3.6,8.6,0,5.788-1.251,8.683-3.559,8.683s-3.715-2.777-3.676-8.6C14.047,22.534,15.532,19.758,17.723,19.758Zm28.29,21.783c6.492,0,9.659-5.4,9.659-13.258,0-6.961-2.659-13.023-9.464-13.023-6.57,0-9.7,5.827-9.7,13.18C36.55,35.636,39.443,41.541,46.013,41.541Zm.118-21.783c2.386,0,3.6,2.972,3.6,8.6,0,5.788-1.251,8.683-3.559,8.683s-3.715-2.777-3.676-8.6C42.455,22.534,43.94,19.758,46.131,19.758Z"
        fill="#444950" id="ic_app_logo" transform="translate(-0.098 -0.185)" />
</svg>
